name 900061_42ik_rsw.mot
datacolumns 165
datarows 4
range 0.54166667 0.56666667
cursor 1.0 1.0 0.0
keys m_key
wrap
enforce_loops no
enforce_constraints no
calc_derivatives 0.008333
event_color 1.000000 0.000000 1.000000
endheader
                time	          calcn_r_tx	          calcn_r_ty	          calcn_r_tz	          calcn_r_r1	          calcn_r_r2	          calcn_r_r3	          calcn_l_tx	          calcn_l_ty	          calcn_l_tz	          calcn_l_r1	          calcn_l_r2	          calcn_l_r3	           pelvis_tz	           pelvis_tx	           pelvis_ty	         pelvis_tilt	         pelvis_list	     pelvis_rotation	       hip_flexion_r	     hip_adduction_r	      hip_rotation_r	        knee_angle_r	       ankle_angle_r	    subtalar_angle_r	         mtp_angle_r	       hip_flexion_l	     hip_adduction_l	      hip_rotation_l	        knee_angle_l	       ankle_angle_l	    subtalar_angle_l	         mtp_angle_l	    lumbar_extension	      lumbar_bending	     lumbar_rotation	     ground_force_px	     ground_force_py	     ground_force_pz	     ground_force_vx	     ground_force_vy	     ground_force_vz	     ground_force_px	     ground_force_py	     ground_force_pz	     ground_force_vx	     ground_force_vy	     ground_force_vz	     ground_torque_x	     ground_torque_y	     ground_torque_z	     ground_torque_x	     ground_torque_y	     ground_torque_z	           midhip_px	           midhip_py	           midhip_pz	            hip_r_px	            hip_r_py	            hip_r_pz	            hip_l_px	            hip_l_py	            hip_l_pz	           knee_r_px	           knee_r_py	           knee_r_pz	           knee_l_px	           knee_l_py	           knee_l_pz	          ankle_r_px	          ankle_r_py	          ankle_r_pz	          ankle_l_px	          ankle_l_py	          ankle_l_pz	          midasis_px	          midasis_py	          midasis_pz	           asis_r_px	           asis_r_py	           asis_r_pz	           asis_l_px	           asis_l_py	           asis_l_pz	           psis_r_px	           psis_r_py	           psis_r_pz	           psis_l_px	           psis_l_py	           psis_l_pz	     epicondLat_r_px	     epicondLat_r_py	     epicondLat_r_pz	     epicondLat_l_px	     epicondLat_l_py	     epicondLat_l_pz	     epicondMed_r_px	     epicondMed_r_py	     epicondMed_r_pz	     epicondMed_l_px	     epicondMed_l_py	     epicondMed_l_pz	   malleolusLat_r_px	   malleolusLat_r_py	   malleolusLat_r_pz	   malleolusLat_l_px	   malleolusLat_l_py	   malleolusLat_l_pz	  malleolusMedv_r_px	  malleolusMedv_r_py	  malleolusMedv_r_pz	  malleolusMedv_l_px	  malleolusMedv_l_py	  malleolusMedv_l_pz	             neck_px	             neck_py	             neck_pz	    subclavicle_r_px	    subclavicle_r_py	    subclavicle_r_pz	    subclavicle_l_px	    subclavicle_l_py	    subclavicle_l_pz	     sternalnotch_px	     sternalnotch_py	     sternalnotch_pz	   xyphoidprocess_px	   xyphoidprocess_py	   xyphoidprocess_pz	      thighwand_r_px	      thighwand_r_py	      thighwand_r_pz	      thighwand_l_px	      thighwand_l_py	      thighwand_l_pz	      upperleg1_r_px	      upperleg1_r_py	      upperleg1_r_pz	      upperleg1_l_px	      upperleg1_l_py	      upperleg1_l_pz	      upperleg2_r_px	      upperleg2_r_py	      upperleg2_r_pz	      upperleg2_l_px	      upperleg2_l_py	      upperleg2_l_pz	      shankwand_r_px	      shankwand_r_py	      shankwand_r_pz	      shankwand_l_px	      shankwand_l_py	      shankwand_l_pz	      lowerleg1_r_px	      lowerleg1_r_py	      lowerleg1_r_pz	      lowerleg1_l_px	      lowerleg1_l_py	      lowerleg1_l_pz	            toe_r_px	            toe_r_py	            toe_r_pz	            toe_l_px	            toe_l_py	            toe_l_pz
0.54166667	-1.52846172	0.02753678	0.25762222	3.4840768	8.10927547	-0.23302804	-1.63214303	0.13960113	0.13710735	1.33082969	2.85623612	-28.38075044	0.20697114	-1.36662806	0.88603385	3.27123596	-6.56811965	7.54114196	-0.01573554	11.769307	2.19002645	-12.69442758	10.74361308	0	0	16.80524853	-7.42685925	4.34026647	-60.23718263	13.2601594	0	0	-7.69646543	4.66102062	2.7938131	-1.40356999	0	0.27013808	-3.81686261	265.7581172	-22.00322728	-1.56495298	0	0.13894844	0	0	0	0	-1.17666655	0	0	0	0	-1.41930729	0.82305657	0.22105802	-1.40848106	0.83371388	0.29485937	-1.43013377	0.81239933	0.1472562	-1.38845733	0.44586443	0.26044913	-1.33438139	0.43086976	0.13157155	-1.48771601	0.06655075	0.24607385	-1.5748736	0.15979038	0.13653771	-1.36807346	0.8981308	0.2081023	-1.35552758	0.90859247	0.30674487	-1.38061909	0.88766884	0.10945983	-1.52065205	0.9285809	0.25053844	-1.52743782	0.92187887	0.19589881	-1.38618917	0.4493841	0.31251003	-1.31198396	0.4616148	0.07374741	-1.42443166	0.45276835	0.21845677	-1.31104917	0.43645469	0.17543543	-1.49180862	0.06587165	0.2843447	-1.57699363	0.1606135	0.09812215	-1.46693382	0.075082	0.21551259	-1.54917382	0.15303799	0.15980668	-1.49717994	1.33517033	0.22730576	-1.38835418	1.26494361	0.25602564	-1.40524069	1.26302154	0.15597182	-1.41163848	1.27468178	0.20301091	-1.353549	1.10945642	0.19753213	-1.27272979	0.63360875	0.23884702	-1.23637564	0.65262431	0.15748868	-1.33489215	0.67646114	0.30625564	-1.31664998	0.67343591	0.09928356	-1.34017876	0.59017797	0.30352275	-1.28805796	0.58986676	0.09895696	-1.46254833	0.17655781	0.35735575	-1.53456387	0.27600831	0.03944925	-1.46169708	0.18588287	0.3161159	-1.51777297	0.26928136	0.07843179	-1.37459598	0.03941998	0.28195757	-1.48817984	0.08197602	0.08977283
0.55	-1.52793521	0.02837184	0.25579819	3.52925525	6.96900377	-0.50745583	-1.58784502	0.12617103	0.13652512	0.96355011	1.7613296	-24.58698152	0.20715624	-1.35186041	0.88618044	3.06664196	-6.42165309	6.87117823	-1.40393144	11.59506949	2.02236573	-11.725427	10.94545554	0	0	18.54924288	-6.50073253	4.60732237	-58.71917689	13.81242087	0	0	-7.65674738	4.09530923	3.43219468	-1.3880519	0	0.27362949	-4.28820231	259.7844182	-25.23450229	-1.52370777	0	0.1390959	0	0	0	0	-1.16287004	0	0	0	0	-1.40457332	0.82360258	0.22052174	-1.39439277	0.83373085	0.29448994	-1.41475412	0.81347443	0.14655311	-1.38635173	0.44611586	0.26084015	-1.30703254	0.43504051	0.13406899	-1.4868374	0.06702568	0.2461193	-1.53191669	0.14952469	0.13689881	-1.3529979	0.89860569	0.20854086	-1.3414105	0.90839942	0.30722959	-1.3645851	0.88881164	0.1098522	-1.50602536	0.92928793	0.24893933	-1.51212807	0.92271748	0.19438545	-1.38263364	0.44898322	0.31339664	-1.28495231	0.4660433	0.07630485	-1.41952595	0.45333287	0.21870484	-1.28434537	0.44142013	0.17803527	-1.49147603	0.06645654	0.28433063	-1.53303826	0.14977853	0.09847514	-1.46625887	0.07539004	0.21566986	-1.5063914	0.14486671	0.16092702	-1.47934699	1.33612181	0.22894792	-1.37061908	1.26589791	0.25689577	-1.38799027	1.26356077	0.15696046	-1.39414648	1.27543464	0.20396544	-1.33629281	1.11011403	0.1989282	-1.26316479	0.62977598	0.24126121	-1.21640247	0.65955616	0.16083243	-1.3255534	0.67481735	0.30722746	-1.29627127	0.67791478	0.10123472	-1.33320645	0.58887065	0.30482004	-1.26502696	0.59541027	0.10161551	-1.4621654	0.17697197	0.35762042	-1.49544951	0.26705992	0.03904574	-1.4609458	0.18624373	0.31646416	-1.47919404	0.26149313	0.07831884	-1.37423924	0.039397	0.28248421	-1.4391141	0.07775836	0.09361373
0.55833333	-1.52781303	0.02911564	0.25427755	3.44589237	5.68953005	-0.81585318	-1.54222621	0.11259729	0.13589304	0.63856722	0.52714318	-20.53941056	0.20683752	-1.33703563	0.88598659	2.86010459	-6.23716147	6.0744646	-2.81068003	11.2743922	1.83421724	-10.8214218	11.16504687	0	0	20.14560923	-5.55272272	4.80717143	-56.8974182	14.4549642	0	0	-7.65845854	3.40254878	4.33642906	-1.37384632	0	0.27619742	-4.30794491	262.1296324	-27.18491656	-1.48202739	0	0.13923432	0	0	0	0	-1.07718568	0	0	0	0	-1.3898022	0.82377223	0.21996662	-1.38041841	0.83341217	0.29410418	-1.39918622	0.81413237	0.1458287	-1.38413061	0.44648634	0.26110668	-1.28048744	0.43887353	0.13643188	-1.48585836	0.06762276	0.24606251	-1.48823318	0.13939116	0.13736001	-1.33794254	0.8987381	0.20902772	-1.32753058	0.90794002	0.30779874	-1.34835441	0.88953586	0.11025679	-1.4914996	0.92958583	0.24699491	-1.49679993	0.92303116	0.19259449	-1.37898806	0.44865498	0.31419152	-1.25861884	0.47025458	0.07875204	-1.41419729	0.45384276	0.2187883	-1.25846498	0.44595883	0.18050117	-1.49105044	0.06717786	0.28420694	-1.48816986	0.13902994	0.09893955	-1.46541415	0.07577764	0.21572914	-1.46285235	0.13672856	0.16210925	-1.46144123	1.33673326	0.23059432	-1.3527639	1.26642909	0.25775992	-1.37065581	1.26363382	0.15787999	-1.37654907	1.27574711	0.20488062	-1.31899215	1.11030774	0.20035233	-1.25362296	0.62603791	0.24391842	-1.19692319	0.66573662	0.16406804	-1.3163717	0.67318245	0.30827882	-1.27618525	0.68186727	0.10313383	-1.32627585	0.5875872	0.30615356	-1.24251923	0.60047759	0.10421006	-1.46166901	0.17755008	0.35774867	-1.45560616	0.25774149	0.0384623	-1.46003794	0.18672389	0.31665609	-1.43993996	0.25341731	0.07805507	-1.37383965	0.0393918	0.28295379	-1.38964121	0.07388368	0.09751677
0.56666667	-1.52735886	0.0302145	0.25323309	3.4314967	4.72586247	-1.23150153	-1.49619665	0.09981195	0.1359801	0.56387108	-0.07820653	-16.61943912	0.20746209	-1.32156523	0.88564453	2.66613495	-5.99839128	5.53420856	-4.17240426	10.99913194	1.68344606	-10.0283722	11.38549353	0	0	21.60293985	-4.92354683	4.73682083	-54.79819874	14.89245109	0	0	-7.70109292	2.66914351	5.5197714	-1.36193444	0	0.27755679	-4.06507879	273.0747868	-27.97621492	-1.44009039	0	0.13936395	0	0	0	0	-0.82744724	0	0	0	0	-1.37499415	0.8235875	0.21943026	-1.3665581	0.8327894	0.2937346	-1.38343042	0.81438557	0.14512567	-1.38162961	0.44691432	0.26120015	-1.25500062	0.44223974	0.13862712	-1.48481127	0.06837114	0.24585128	-1.44381269	0.12953044	0.1379375	-1.32289418	0.89853785	0.20959118	-1.31387491	0.9072362	0.30847539	-1.3319135	0.8898392	0.11070708	-1.47703202	0.92952601	0.24475921	-1.48142041	0.92286332	0.19054185	-1.37513014	0.44839717	0.31483492	-1.23305494	0.47419812	0.08105987	-1.40830488	0.45425954	0.21866991	-1.23366845	0.44989985	0.18266877	-1.49054748	0.06806491	0.28392232	-1.44253391	0.12863052	0.099533	-1.46443856	0.07626563	0.21563821	-1.41857494	0.1288047	0.16331311	-1.44348746	1.3369951	0.23223725	-1.33482536	1.26653956	0.25859698	-1.35326873	1.26332028	0.15870268	-1.3588815	1.27566037	0.20573953	-1.30165876	1.11009104	0.20166043	-1.24405033	0.62243436	0.24681464	-1.17797591	0.67105123	0.16730557	-1.30729896	0.67159044	0.30941732	-1.25637857	0.68526565	0.10504282	-1.31929677	0.58632145	0.30750284	-1.22058109	0.60495933	0.10674477	-1.46099743	0.17831068	0.35768324	-1.41539735	0.24845044	0.03791222	-1.45890875	0.18733949	0.31663657	-1.40028408	0.24539303	0.07782208	-1.37342844	0.03939341	0.28332911	-1.33991795	0.07052959	0.10129369
